# xmcd
#
# Track frame offsets:
#	150
#	20409
#	39612
#	54803
#	71879
#	93312
#	112907
#	130908
#	147770
#	163145
#
# Disc length: 2316 seconds
#
# Revision: 1
# Processed by: cddbd v1.5.1PL0 Copyright (c) Steve Scherf et al.
# Submitted via: audiograbber 1.83.01
#
DISCID=83090a0a
DTITLE=Double Scale - Archive 2
DYEAR=1900
DGENRE=
TTITLE0=Eric Clapton - Someday After A While
TTITLE1=Eric Clapton - Roll It Over
TTITLE2=Fleetwod Mac - Homework
TTITLE3=Freddie King - I'm Ready
TTITLE4=Jeff Beck - Let Me Love You
TTITLE5=Joe Cocker - The Letter
TTITLE6=John Mayall - Maydell
TTITLE7=John Mayall - Oh Pretty Woman
TTITLE8=John Mayall - Double Trouble
TTITLE9=Junior Wells - Messin With The Kid
EXTD=Compilation
EXTT0=
EXTT1=
EXTT2=
EXTT3=
EXTT4=
EXTT5=
EXTT6=
EXTT7=
EXTT8=
EXTT9=
PLAYORDER=
